<svg viewBox="0 0 100 100" fill="none" xmlns="http://www.w3.org/2000/svg">
  <path d="M50 10 A40 40 0 0 1 85 25" stroke="#263366" stroke-width="6" fill="none"/>
  <path d="M85 75 A40 40 0 0 1 50 90" stroke="#263366" stroke-width="6" fill="none"/>
  <path d="M15 75 A40 40 0 0 1 15 25" stroke="#263366" stroke-width="6" fill="none"/>
  <circle cx="50" cy="50" r="25" stroke="#263366" stroke-width="4" fill="none"/>
  <path d="M42 40 L50 32 L58 40 L56 42 L52 38 L52 48 L58 48 L58 50 L42 50 L42 48 L48 48 L48 38 L44 42 Z" fill="#263366"/>
  <path d="M58 38 A8 8 0 0 1 58 52" stroke="#263366" stroke-width="3" fill="none"/>
  <circle cx="20" cy="30" r="3" fill="#263366"/>
  <circle cx="80" cy="30" r="3" fill="#263366"/>
  <circle cx="80" cy="70" r="3" fill="#263366"/>
  <path d="M35 35 L45 45" stroke="#263366" stroke-width="3"/>
  <path d="M65 35 L55 45" stroke="#263366" stroke-width="3"/>
  <path d="M65 65 L55 55" stroke="#263366" stroke-width="3"/>
</svg>
